<?xml version="1.0" encoding="UTF-8"?> <svg xmlns="http://www.w3.org/2000/svg" width="2434" height="1391" viewBox="0 0 2434 1391" fill="none"> <path d="M345.875 1301.87C455.678 1361.29 578.398 1391 714.036 1391C819.963 1391 916.847 1372.91 1004.69 1336.74C1077.06 1307.37 1742.55 1015.75 2023.43 869.783V810.34C2023.43 810.34 884.014 1223.07 723.724 1218.55C564.492 1214.05 552.489 1207.39 452.515 1151.84L450.51 1150.73C369.128 1105.51 305.184 1043.51 258.68 964.709C224.256 903.73 202.937 837.508 194.722 766.045L0 765.993C9.0254 870.696 39.059 966.646 90.1008 1053.84C152.107 1158.48 237.365 1241.15 345.875 1301.87Z" fill="#2864FF"></path> <path d="M347.813 94.6882C238.011 154.111 152.107 236.785 90.1008 342.712C39.0594 428.844 9.02566 524.168 0 628.682H194.722C202.937 557.453 224.256 491.841 258.68 431.845C305.184 351.754 369.128 289.103 450.51 243.89C531.893 198.677 622.964 176.071 723.724 176.071L715.973 3.61694C580.335 3.61694 457.615 33.974 347.813 94.6882Z" fill="#2864FF"></path> <path d="M1202.6 1301.49L1007.49 1382.23V1388.95H1202.6V1301.49Z" fill="#FFB800"></path> <path fill-rule="evenodd" clip-rule="evenodd" d="M1007.49 1113.1L1202.6 1059.28V971.815H1431.36L2003.24 769.972C2045.85 736.332 2109.02 635.411 2104.16 460.481C2096.69 191.462 1868.68 9.70001 1700.48 2.97193C1565.92 -2.41053 1182.42 0.729243 1007.49 2.97193V1113.1ZM1530.11 798.922C1652.7 798.922 1746.25 771.862 1810.77 717.742C1875.3 663.623 1907.56 586.404 1907.56 486.085C1907.56 385.766 1875.3 309.207 1810.77 256.408C1746.25 202.289 1652.7 175.229 1530.11 175.229H1201.05V798.922H1530.11Z" fill="#FFB800"></path> <path d="M1861.95 1005.45L1707.21 1079.46L1909.05 1388.95H2124.35L1861.95 1005.45Z" fill="#FFB800"></path> <circle cx="2339.65" cy="850.707" r="94.1931" fill="#FFB800"></circle> <path d="M2420.38 1012.18H2258.91V1362.04C2323.5 1399.72 2402.44 1377.74 2420.38 1362.04V1012.18Z" fill="#FFB800"></path> </svg> 